<?xml version="1.0" encoding="UTF-8"?>
<svg width="50px" height="48px" viewBox="0 0 50 48" version="1.1" xmlns="http://www.w3.org/2000/svg" xmlns:xlink="http://www.w3.org/1999/xlink">
    <!-- Generator: Sketch 48.1 (47250) - http://www.bohemiancoding.com/sketch -->
    <title>education-48px-glyph_board-51</title>
    <desc>Created with Sketch.</desc>
    <defs></defs>
    <g id="All-Elements" stroke="none" stroke-width="1" fill="none" fill-rule="evenodd" transform="translate(-691.000000, -2190.000000)">
        <g id="Group" transform="translate(150.000000, 1819.000000)" fill="#0BA8E7" fill-rule="nonzero">
            <g id="Group-14" transform="translate(522.000000, 351.000000)">
                <g id="education-48px-glyph_board-51" transform="translate(19.992188, 19.992188)">
                    <path d="M5.21908967,32.358356 C5.84538043,32.358356 6.26290761,31.9408288 6.26290761,31.314538 L6.26290761,8.35054348 L38.2037364,8.35054348 L29.5400476,17.0142323 C29.1225204,17.4317595 29.1225204,18.0580503 29.5400476,18.4755774 C29.7488111,18.684341 30.0619565,18.7887228 30.2707201,18.7887228 C30.4794837,18.7887228 30.7926291,18.684341 31.0013927,18.4755774 L41.1264266,8.35054348 L41.7527174,8.35054348 L41.7527174,31.314538 C41.7527174,31.9408288 42.1702446,32.358356 42.7965353,32.358356 C43.4228261,32.358356 43.8403533,31.9408288 43.8403533,31.314538 L43.8403533,7.30672554 C43.8403533,6.88919837 43.5272079,6.4716712 43.1096807,6.3672894 L47.7024796,1.77449049 C48.1200068,1.35696332 48.1200068,0.730672554 47.7024796,0.31314538 C47.2849524,-0.104381793 46.6586617,-0.104381793 46.2411345,0.31314538 L40.2913723,6.26290761 L27.1392663,6.26290761 L27.1392663,3.1314538 C27.1392663,2.50516304 26.7217391,2.08763587 26.0954484,2.08763587 L21.9201766,2.08763587 C21.2938859,2.08763587 20.8763587,2.50516304 20.8763587,3.1314538 L20.8763587,6.26290761 L5.21908967,6.26290761 C4.59279891,6.26290761 4.17527174,6.68043478 4.17527174,7.30672554 L4.17527174,31.314538 C4.17527174,31.9408288 4.59279891,32.358356 5.21908967,32.358356 Z" id="Shape"></path>
                    <path d="M46.9718071,34.4459918 L1.04381793,34.4459918 C0.417527174,34.4459918 0,34.863519 0,35.4898098 L0,36.5336277 C0,37.1599185 0.417527174,37.5774457 1.04381793,37.5774457 L17.6405231,37.5774457 L10.6469429,46.3455163 C10.3337976,46.7630435 10.3337976,47.493716 10.8557065,47.8068614 C11.0644701,47.9112432 11.2732337,48.015625 11.4819973,48.015625 C11.7951427,48.015625 12.108288,47.9112432 12.3170516,47.5980978 L20.3544497,37.5774457 L22.9639946,37.5774457 L22.9639946,44.8841712 C22.9639946,45.510462 23.3815217,45.9279891 24.0078125,45.9279891 C24.6341033,45.9279891 25.0516304,45.510462 25.0516304,44.8841712 L25.0516304,37.5774457 L27.6611753,37.5774457 L35.6985734,47.5980978 C35.907337,47.8068614 36.2204823,48.015625 36.5336277,48.015625 C36.7423913,48.015625 36.9511549,47.9112432 37.1599185,47.8068614 C37.5774457,47.493716 37.6818274,46.7630435 37.3686821,46.3455163 L30.3751019,37.5774457 L46.9718071,37.5774457 C47.5980978,37.5774457 48.015625,37.1599185 48.015625,36.5336277 L48.015625,35.4898098 C48.015625,34.863519 47.5980978,34.4459918 46.9718071,34.4459918 Z" id="Shape"></path>
                    <path d="M13.5696332,18.7887228 L21.9201766,18.7887228 C22.5464674,18.7887228 22.9639946,18.3711957 22.9639946,17.7449049 C22.9639946,17.1186141 22.5464674,16.701087 21.9201766,16.701087 L13.5696332,16.701087 C12.9433424,16.701087 12.5258152,17.1186141 12.5258152,17.7449049 C12.5258152,18.3711957 12.9433424,18.7887228 13.5696332,18.7887228 Z" id="Shape"></path>
                    <path d="M13.5696332,27.1392663 L34.4459918,27.1392663 C35.0722826,27.1392663 35.4898098,26.7217391 35.4898098,26.0954484 C35.4898098,25.4691576 35.0722826,25.0516304 34.4459918,25.0516304 L13.5696332,25.0516304 C12.9433424,25.0516304 12.5258152,25.4691576 12.5258152,26.0954484 C12.5258152,26.7217391 12.9433424,27.1392663 13.5696332,27.1392663 Z" id="Shape"></path>
                </g>
            </g>
        </g>
    </g>
</svg>