<?xml version="1.0" encoding="UTF-8"?>
<svg width="46px" height="41px" viewBox="0 0 46 41" version="1.1" xmlns="http://www.w3.org/2000/svg" xmlns:xlink="http://www.w3.org/1999/xlink">
    <!-- Generator: Sketch 48.1 (47250) - http://www.bohemiancoding.com/sketch -->
    <title>money-13</title>
    <desc>Created with Sketch.</desc>
    <defs></defs>
    <g id="All-Elements" stroke="none" stroke-width="1" fill="none" fill-rule="evenodd" transform="translate(-532.000000, -13570.000000)">
        <g id="money-13" transform="translate(532.000000, 13570.000000)" fill="#FFFFFF" fill-rule="nonzero">
            <path d="M42,5 L42,1 C42,0.448 41.552,0 41,0 L5,0 C4.448,0 4,0.448 4,1 L4,5 L42,5 Z" id="Shape"></path>
            <path d="M32.071,15 L13.929,15 C13.489,18.061 11.061,20.489 8,20.929 L8,27.072 C11.061,27.512 13.489,29.94 13.929,33.001 L32.072,33.001 C32.512,29.94 34.94,27.512 38.001,27.072 L38.001,20.929 C34.939,20.489 32.511,18.061 32.071,15 Z M23,28 C20.791,28 19,26.209 19,24 C19,21.791 20.791,20 23,20 C25.209,20 27,21.791 27,24 C27,26.209 25.209,28 23,28 Z" id="Shape"></path>
            <path d="M45,7 L1,7 C0.448,7 0,7.448 0,8 L0,40 C0,40.552 0.448,41 1,41 L45,41 C45.552,41 46,40.552 46,40 L46,8 C46,7.448 45.552,7 45,7 Z M40,28 C40,28.552 39.552,29 39,29 C36.243,29 34,31.243 34,34 C34,34.552 33.552,35 33,35 L13,35 C12.448,35 12,34.552 12,34 C12,31.243 9.757,29 7,29 C6.448,29 6,28.552 6,28 L6,20 C6,19.448 6.448,19 7,19 C9.757,19 12,16.757 12,14 C12,13.448 12.448,13 13,13 L33,13 C33.552,13 34,13.448 34,14 C34,16.757 36.243,19 39,19 C39.552,19 40,19.448 40,20 L40,28 Z" id="Shape"></path>
        </g>
    </g>
</svg>