<?xml version="1.0" encoding="UTF-8"?>
<svg width="46px" height="46px" viewBox="0 0 46 46" version="1.1" xmlns="http://www.w3.org/2000/svg" xmlns:xlink="http://www.w3.org/1999/xlink">
    <!-- Generator: Sketch 48.1 (47250) - http://www.bohemiancoding.com/sketch -->
    <title>shopping-48px-glyph-2_sign-open</title>
    <desc>Created with Sketch.</desc>
    <defs></defs>
    <g id="All-Elements" stroke="none" stroke-width="1" fill="none" fill-rule="evenodd" transform="translate(-1087.000000, -1837.000000)">
        <g id="Group" transform="translate(150.000000, 1819.000000)" fill="#0BA8E7" fill-rule="nonzero">
            <g id="Group-17" transform="translate(916.000000, 0.000000)">
                <g id="shopping-48px-glyph-2_sign-open" transform="translate(21.000000, 18.000000)">
                    <path d="M12.969,14 L19.587,6.059 C20.287,7.217 21.547,8 23,8 C24.453,8 25.713,7.217 26.413,6.059 L33.031,14 L35.635,14 L26.958,3.588 C26.749,1.575 25.068,0 23,0 C20.932,0 19.251,1.575 19.042,3.588 L10.365,14 L12.969,14 Z" id="Shape"></path>
                    <path d="M20.234,28.678 L19.546,28.678 L19.546,30.797 L20.044,30.797 C20.509,30.797 20.858,30.705 21.089,30.522 C21.319,30.337 21.436,30.07 21.436,29.718 C21.436,29.364 21.339,29.101 21.146,28.932 C20.951,28.763 20.647,28.678 20.234,28.678 Z" id="Shape"></path>
                    <path d="M13.164,28.585 C12.561,28.585 12.108,28.787 11.802,29.193 C11.495,29.597 11.343,30.199 11.343,30.997 C11.343,31.795 11.494,32.395 11.797,32.799 C12.1,33.203 12.552,33.404 13.154,33.404 C14.362,33.404 14.966,32.601 14.966,30.997 C14.965,29.389 14.365,28.585 13.164,28.585 Z" id="Shape"></path>
                    <path d="M44,16 L2,16 C0.895,16 0,16.895 0,18 L0,44 C0,45.105 0.895,46 2,46 L44,46 C45.105,46 46,45.105 46,44 L46,18 C46,16.895 45.105,16 44,16 Z M15.673,33.722 C15.087,34.357 14.247,34.674 13.153,34.674 C12.059,34.674 11.219,34.357 10.633,33.722 C10.047,33.087 9.754,32.176 9.754,30.988 C9.754,29.8 10.048,28.892 10.636,28.266 C11.223,27.639 12.066,27.326 13.162,27.326 C14.258,27.326 15.099,27.641 15.679,28.273 C16.261,28.905 16.551,29.813 16.551,30.998 C16.552,32.179 16.259,33.087 15.673,33.722 Z M22.243,31.427 C21.764,31.834 21.081,32.037 20.195,32.037 L19.546,32.037 L19.546,34.576 L18.032,34.576 L18.032,27.437 L20.312,27.437 C21.178,27.437 21.836,27.624 22.288,27.996 C22.738,28.369 22.964,28.925 22.964,29.664 C22.963,30.433 22.723,31.02 22.243,31.427 Z M28.422,28.678 L25.824,28.678 L25.824,30.245 L28.241,30.245 L28.241,31.485 L25.824,31.485 L25.824,33.326 L28.422,33.326 L28.422,34.576 L24.311,34.576 L24.311,27.437 L28.422,27.437 L28.422,28.678 Z M36.245,34.577 L34.321,34.577 L31.216,29.177 L31.172,29.177 C31.234,30.131 31.265,30.811 31.265,31.218 L31.265,34.577 L29.912,34.577 L29.912,27.438 L31.821,27.438 L34.922,32.785 L34.956,32.785 C34.907,31.857 34.883,31.201 34.883,30.817 L34.883,27.438 L36.245,27.438 L36.245,34.577 Z" id="Shape"></path>
                </g>
            </g>
        </g>
    </g>
</svg>