<?xml version="1.0" encoding="UTF-8"?>
<svg width="32px" height="32px" viewBox="0 0 32 32" version="1.1" xmlns="http://www.w3.org/2000/svg" xmlns:xlink="http://www.w3.org/1999/xlink">
    <!-- Generator: Sketch 48.1 (47250) - http://www.bohemiancoding.com/sketch -->
    <title>logo-facebook</title>
    <desc>Created with Sketch.</desc>
    <defs></defs>
    <g id="All-Elements" stroke="none" stroke-width="1" fill="none" fill-rule="evenodd" transform="translate(-313.000000, -4960.000000)">
        <g id="logo-facebook" transform="translate(313.000000, 4960.000000)" fill="#C6C6C6" fill-rule="nonzero">
            <path d="M30.7,0 L1.3,0 C0.6,0 0,0.6 0,1.3 L0,30.6 C0,31.4 0.6,32 1.3,32 L17,32 L17,20 L13,20 L13,15 L17,15 L17,11 C17,6.9 19.6,4.8 23.3,4.8 C25.1,4.8 26.6,5 27,5 L27,9.3 L24.4,9.3 C22.4,9.3 21.9,10.3 21.9,11.7 L21.9,15 L26.9,15 L25.9,20 L21.9,20 L22,32 L30.6,32 C31.3,32 31.9,31.4 31.9,30.7 L31.9,1.3 C32,0.6 31.4,0 30.7,0 Z" id="Shape"></path>
        </g>
    </g>
</svg>