<?xml version="1.0" encoding="UTF-8"?>
<svg width="32px" height="26px" viewBox="0 0 32 26" version="1.1" xmlns="http://www.w3.org/2000/svg" xmlns:xlink="http://www.w3.org/1999/xlink">
    <!-- Generator: Sketch 48.1 (47250) - http://www.bohemiancoding.com/sketch -->
    <title>logo-twitter</title>
    <desc>Created with Sketch.</desc>
    <defs></defs>
    <g id="All-Elements" stroke="none" stroke-width="1" fill="none" fill-rule="evenodd" transform="translate(-366.000000, -4963.000000)">
        <g id="logo-twitter" transform="translate(365.000000, 4963.000000)" fill="#C6C6C6" fill-rule="nonzero">
            <path d="M33,3.1 C31.8,3.6 30.6,4 29.2,4.1 C30.6,3.3 31.6,2 32.1,0.5 C30.8,1.3 29.4,1.8 27.9,2.1 C26.7,0.8 25,0 23.2,0 C19.6,0 16.6,2.9 16.6,6.6 C16.6,7.1 16.7,7.6 16.8,8.1 C11.3,7.8 6.5,5.2 3.2,1.2 C2.6,2.2 2.3,3.3 2.3,4.5 C2.3,6.8 3.5,8.8 5.2,10 C4.1,10 3.1,9.7 2.2,9.2 C2.2,9.2 2.2,9.3 2.2,9.3 C2.2,12.5 4.5,15.1 7.5,15.7 C6.9,15.8 6.4,15.9 5.8,15.9 C5.4,15.9 5,15.9 4.6,15.8 C5.4,18.4 7.9,20.3 10.7,20.4 C8.5,22.2 5.6,23.2 2.5,23.2 C2,23.2 1.4,23.2 0.9,23.1 C3.9,24.9 7.4,26 11.1,26 C23.2,26 29.8,16 29.8,7.3 C29.8,7 29.8,6.7 29.8,6.5 C31,5.5 32.1,4.4 33,3.1 Z" id="Shape"></path>
        </g>
    </g>
</svg>