<?xml version="1.0" encoding="UTF-8"?>
<svg width="14px" height="18px" viewBox="0 0 14 18" version="1.1" xmlns="http://www.w3.org/2000/svg" xmlns:xlink="http://www.w3.org/1999/xlink">
    <!-- Generator: Sketch 48.1 (47250) - http://www.bohemiancoding.com/sketch -->
    <title>pin-3</title>
    <desc>Created with Sketch.</desc>
    <defs></defs>
    <g id="All-Elements" stroke="none" stroke-width="1" fill="none" fill-rule="evenodd" transform="translate(-834.000000, -16412.000000)">
        <g id="pin-3" transform="translate(834.000000, 16412.000000)" fill="#E52D2E" fill-rule="nonzero">
            <path d="M6.96774194,0 C3.54193548,0 0,2.61290323 0,6.96774194 C0,11.0903226 6.27096774,17.5354839 6.56129032,17.8258065 C6.67741935,17.9419355 6.79354839,18 6.96774194,18 C7.14193548,18 7.25806452,17.9419355 7.37419355,17.8258065 C7.66451613,17.5354839 13.9354839,11.1483871 13.9354839,6.96774194 C13.9354839,2.61290323 10.3935484,0 6.96774194,0 Z M6.96774194,9.29032258 C5.69032258,9.29032258 4.64516129,8.24516129 4.64516129,6.96774194 C4.64516129,5.69032258 5.69032258,4.64516129 6.96774194,4.64516129 C8.24516129,4.64516129 9.29032258,5.69032258 9.29032258,6.96774194 C9.29032258,8.24516129 8.24516129,9.29032258 6.96774194,9.29032258 Z" id="Shape"></path>
        </g>
    </g>
</svg>