<?xml version="1.0" encoding="UTF-8"?>
<svg width="45px" height="45px" viewBox="0 0 45 45" version="1.1" xmlns="http://www.w3.org/2000/svg" xmlns:xlink="http://www.w3.org/1999/xlink">
    <!-- Generator: Sketch 48.1 (47250) - http://www.bohemiancoding.com/sketch -->
    <title>plane-17</title>
    <desc>Created with Sketch.</desc>
    <defs></defs>
    <g id="All-Elements" stroke="none" stroke-width="1" fill="none" fill-rule="evenodd" transform="translate(-298.000000, -12312.000000)">
        <g id="plane-17" transform="translate(298.000000, 12312.000000)" fill="#0BA8E7" fill-rule="nonzero">
            <path d="M16.179,16.579 L24.868,7.89 L6.346,1.062 C5.984,0.927 5.576,1.014 5.3,1.286 L1.3,5.21 C1.085,5.421 0.977,5.718 1.005,6.018 C1.032,6.318 1.194,6.589 1.445,6.756 L16.179,16.579 Z" id="Shape"></path>
            <path d="M37.111,20.132 L28.421,28.821 L38.244,43.555 C38.411,43.806 38.682,43.968 38.982,43.995 C39.014,43.999 39.045,44 39.076,44 C39.344,44 39.601,43.893 39.79,43.7 L43.714,39.7 C43.985,39.424 44.072,39.016 43.939,38.654 L37.111,20.132 Z" id="Shape"></path>
            <path d="M43.949,1.05 C42.539,-0.36 39.708,0.036 38.147,0.399 C35.77,0.949 33.527,2.058 32.293,3.293 L12.293,23.293 C12.228,23.358 12.171,23.434 12.126,23.515 L7.683,31.512 L1.079,31.004 C0.153,30.933 -0.361,32.052 0.295,32.708 L4.617,37.03 L2.125,41.515 C1.908,41.905 1.977,42.392 2.292,42.707 C2.609,43.024 3.096,43.09 3.484,42.874 L7.969,40.382 L12.291,44.704 C12.947,45.36 14.066,44.846 13.995,43.92 L13.487,37.316 L21.484,32.873 C21.565,32.828 21.64,32.771 21.706,32.706 L41.706,12.706 C44.138,10.277 46.237,3.338 43.949,1.05 Z" id="Shape"></path>
        </g>
    </g>
</svg>