<?xml version="1.0" encoding="UTF-8"?>
<svg width="36px" height="46px" viewBox="0 0 36 46" version="1.1" xmlns="http://www.w3.org/2000/svg" xmlns:xlink="http://www.w3.org/1999/xlink">
    <!-- Generator: Sketch 48.1 (47250) - http://www.bohemiancoding.com/sketch -->
    <title>train</title>
    <desc>Created with Sketch.</desc>
    <defs></defs>
    <g id="All-Elements" stroke="none" stroke-width="1" fill="none" fill-rule="evenodd" transform="translate(-702.000000, -12311.000000)">
        <g id="train" transform="translate(702.000000, 12311.000000)" fill="#0BA8E7" fill-rule="nonzero">
            <path d="M34.91,44.586 L29.91,33.586 C29.681,33.083 29.086,32.858 28.586,33.09 C28.083,33.319 27.861,33.911 28.089,34.414 L30.174,39 L5.826,39 L7.911,34.414 C8.14,33.911 7.917,33.318 7.414,33.09 C6.914,32.86 6.319,33.083 6.09,33.586 L1.09,44.586 C0.861,45.089 1.084,45.682 1.587,45.91 C1.72,45.972 1.861,46 2,46 C2.38,46 2.743,45.782 2.911,45.414 L4.917,41 L31.084,41 L33.09,45.414 C33.257,45.782 33.621,46 34,46 C34.139,46 34.279,45.972 34.413,45.91 C34.917,45.682 35.139,45.089 34.91,44.586 Z" id="Shape"></path>
            <path d="M31,0 L5,0 C2.243,0 0,2.243 0,5 L0,30 C0,32.757 2.243,35 5,35 L31,35 C33.757,35 36,32.757 36,30 L36,5 C36,2.243 33.757,0 31,0 Z M9.5,29 C8.119,29 7,27.881 7,26.5 C7,25.119 8.119,24 9.5,24 C10.881,24 12,25.119 12,26.5 C12,27.881 10.881,29 9.5,29 Z M26.5,29 C25.119,29 24,27.881 24,26.5 C24,25.119 25.119,24 26.5,24 C27.881,24 29,25.119 29,26.5 C29,27.881 27.881,29 26.5,29 Z M27.986,19.165 C27.906,19.646 27.489,20 27,20 L9,20 C8.511,20 8.094,19.646 8.014,19.165 L6.014,7.165 C5.966,6.875 6.047,6.579 6.237,6.354 C6.427,6.129 6.706,6 7,6 L29,6 C29.294,6 29.573,6.129 29.763,6.354 C29.953,6.579 30.034,6.875 29.986,7.165 L27.986,19.165 Z" id="Shape"></path>
        </g>
    </g>
</svg>