<?xml version="1.0" encoding="UTF-8"?>
<svg width="49px" height="45px" viewBox="0 0 49 45" version="1.1" xmlns="http://www.w3.org/2000/svg" xmlns:xlink="http://www.w3.org/1999/xlink">
    <!-- Generator: Sketch 48.1 (47250) - http://www.bohemiancoding.com/sketch -->
    <title>ui-48px-glyph-1_home-51</title>
    <desc>Created with Sketch.</desc>
    <defs></defs>
    <g id="All-Elements" stroke="none" stroke-width="1" fill="none" fill-rule="evenodd" transform="translate(-299.000000, -1840.000000)">
        <g id="Group" transform="translate(150.000000, 1819.000000)" fill="#0BA8E7" fill-rule="nonzero">
            <g id="Group-13" transform="translate(129.000000, 0.000000)">
                <g id="ui-48px-glyph-1_home-51" transform="translate(20.000000, 21.000000)">
                    <path d="M47.2674851,23.0844494 C47.0156548,23.0844494 46.7638244,22.9942102 46.5623601,22.8116332 L24.1830357,2.46688821 L1.8047606,22.8116332 C1.37455041,23.2009209 0.711397135,23.1694422 0.322109375,22.7413305 C-0.0682276786,22.3121696 -0.0367488839,21.6490164 0.392412016,21.2586793 L23.4768614,0.27281622 C23.8776914,-0.0902392113 24.48838,-0.0902392113 24.88921,0.27281622 L47.9736594,21.2586793 C48.4028203,21.6490164 48.4332498,22.3121696 48.0439621,22.7413305 C47.836202,22.9679779 47.5518436,23.0844494 47.2674851,23.0844494 Z" id="Shape"></path>
                    <path d="M24.1830357,5.3031276 L6.34505208,21.518904 L6.34505208,41.9717262 C6.34505208,43.1311951 7.28416946,44.0703125 8.44363839,44.0703125 L18.9365699,44.0703125 C19.5157798,44.0703125 19.9858631,43.6002292 19.9858631,43.0210193 L19.9858631,33.577381 L28.3802083,33.577381 L28.3802083,43.0210193 C28.3802083,43.6002292 28.8502917,44.0703125 29.4295015,44.0703125 L39.922433,44.0703125 C41.081902,44.0703125 42.0210193,43.1311951 42.0210193,41.9717262 L42.0210193,21.5210026 L24.1830357,5.3031276 Z M28.3802083,25.1830357 C28.3802083,25.7632948 27.910125,26.2323289 27.3309152,26.2323289 L21.0351563,26.2323289 C20.4559464,26.2323289 19.9858631,25.7632948 19.9858631,25.1830357 L19.9858631,18.8872768 C19.9858631,18.3070177 20.4559464,17.8379836 21.0351563,17.8379836 L27.3309152,17.8379836 C27.910125,17.8379836 28.3802083,18.3070177 28.3802083,18.8872768 L28.3802083,25.1830357 Z" id="Shape"></path>
                </g>
            </g>
        </g>
    </g>
</svg>