<?xml version="1.0" encoding="UTF-8"?>
<svg width="46px" height="34px" viewBox="0 0 46 34" version="1.1" xmlns="http://www.w3.org/2000/svg" xmlns:xlink="http://www.w3.org/1999/xlink">
    <!-- Generator: Sketch 48.1 (47250) - http://www.bohemiancoding.com/sketch -->
    <title>soccer-field</title>
    <desc>Created with Sketch.</desc>
    <defs></defs>
    <g id="All-Elements" stroke="none" stroke-width="1" fill="none" fill-rule="evenodd" transform="translate(-1238.000000, -13572.000000)">
        <g id="soccer-field" transform="translate(1238.000000, 13572.000000)" fill="#FFFFFF" fill-rule="nonzero">
            <path d="M28,17 C28,14.2431641 25.7568359,12 23,12 C20.2431641,12 18,14.2431641 18,17 C18,19.7568359 20.2431641,22 23,22 C25.7568359,22 28,19.7568359 28,17 Z" id="Shape"></path>
            <rect id="Rectangle-path" x="39" y="10" width="7" height="14"></rect>
            <path d="M37,25 L37,9 C37,8.4477539 37.4477539,8 38,8 L46,8 L46,1 C46,0.4477539 45.5522461,0 45,0 L24,0 L24,10.079834 C27.3865967,10.567627 30,13.4805298 30,17 C30,20.5194702 27.3865967,23.432373 24,23.920166 L24,34 L45,34 C45.5522461,34 46,33.5522461 46,33 L46,26 L38,26 C37.4477539,26 37,25.5522461 37,25 Z" id="Shape"></path>
            <rect id="Rectangle-path" x="0" y="10" width="7" height="14"></rect>
            <path d="M22,23.920166 C18.6134033,23.432373 16,20.5194702 16,17 C16,13.4805298 18.6134033,10.567627 22,10.079834 L22,0 L1,0 C0.4477539,0 0,0.4477539 0,1 L0,8 L8,8 C8.5522461,8 9,8.4477539 9,9 L9,25 C9,25.5522461 8.5522461,26 8,26 L0,26 L0,33 C0,33.5522461 0.4477539,34 1,34 L22,34 L22,23.920166 Z" id="Shape"></path>
        </g>
    </g>
</svg>