<?xml version="1.0" encoding="UTF-8"?>
<svg width="46px" height="46px" viewBox="0 0 46 46" version="1.1" xmlns="http://www.w3.org/2000/svg" xmlns:xlink="http://www.w3.org/1999/xlink">
    <!-- Generator: Sketch 48.1 (47250) - http://www.bohemiancoding.com/sketch -->
    <title>calendar-grid-58</title>
    <desc>Created with Sketch.</desc>
    <defs></defs>
    <g id="All-Elements" stroke="none" stroke-width="1" fill="none" fill-rule="evenodd" transform="translate(-878.000000, -16873.000000)">
        <g id="calendar-grid-58" transform="translate(878.000000, 16873.000000)" fill="#0BA8E7" fill-rule="nonzero">
            <path d="M11,9 C10.447,9 10,8.553 10,8 L10,1 C10,0.447 10.447,0 11,0 C11.553,0 12,0.447 12,1 L12,8 C12,8.553 11.553,9 11,9 Z" id="Shape"></path>
            <path d="M23,9 C22.447,9 22,8.553 22,8 L22,1 C22,0.447 22.447,0 23,0 C23.553,0 24,0.447 24,1 L24,8 C24,8.553 23.553,9 23,9 Z" id="Shape"></path>
            <path d="M35,9 C34.447,9 34,8.553 34,8 L34,1 C34,0.447 34.447,0 35,0 C35.553,0 36,0.447 36,1 L36,8 C36,8.553 35.553,9 35,9 Z" id="Shape"></path>
            <path d="M44,4 L38,4 L38,8 C38,9.654 36.654,11 35,11 C33.346,11 32,9.654 32,8 L32,4 L26,4 L26,8 C26,9.654 24.654,11 23,11 C21.346,11 20,9.654 20,8 L20,4 L14,4 L14,8 C14,9.654 12.654,11 11,11 C9.346,11 8,9.654 8,8 L8,4 L2,4 C0.895,4 0,4.895 0,6 L0,44 C0,45.105 0.895,46 2,46 L44,46 C45.105,46 46,45.105 46,44 L46,6 C46,4.895 45.105,4 44,4 Z M44,43 C44,43.552 43.552,44 43,44 L3,44 C2.448,44 2,43.552 2,43 L2,16 C2,15.448 2.448,15 3,15 L43,15 C43.552,15 44,15.448 44,16 L44,43 Z" id="Shape"></path>
            <path d="M16,38 C16,38.553 15.552,39 15,39 L9,39 C8.448,39 8,38.553 8,38 L8,32 C8,31.447 8.448,31 9,31 L15,31 C15.552,31 16,31.447 16,32 L16,38 Z M16,27 C16,27.553 15.552,28 15,28 L9,28 C8.448,28 8,27.553 8,27 L8,21 C8,20.447 8.448,20 9,20 L15,20 C15.552,20 16,20.447 16,21 L16,27 Z M27,38 C27,38.553 26.552,39 26,39 L20,39 C19.448,39 19,38.553 19,38 L19,32 C19,31.447 19.448,31 20,31 L26,31 C26.552,31 27,31.447 27,32 L27,38 Z M27,27 C27,27.553 26.552,28 26,28 L20,28 C19.448,28 19,27.553 19,27 L19,21 C19,20.447 19.448,20 20,20 L26,20 C26.552,20 27,20.447 27,21 L27,27 Z M38,27 C38,27.553 37.552,28 37,28 L31,28 C30.448,28 30,27.553 30,27 L30,21 C30,20.447 30.448,20 31,20 L37,20 C37.552,20 38,20.447 38,21 L38,27 Z" id="Shape"></path>
        </g>
    </g>
</svg>