<?xml version="1.0" encoding="UTF-8"?>
<svg width="206px" height="153px" viewBox="0 0 206 153" version="1.1" xmlns="http://www.w3.org/2000/svg" xmlns:xlink="http://www.w3.org/1999/xlink">
    <!-- Generator: Sketch 48.1 (47250) - http://www.bohemiancoding.com/sketch -->
    <title>Shape</title>
    <desc>Created with Sketch.</desc>
    <defs></defs>
    <g id="All-Elements" stroke="none" stroke-width="1" fill="none" fill-rule="evenodd" transform="translate(-1061.000000, -2940.000000)" opacity="0.0711616848">
        <g id="text-64px-glyph_quote-copy" transform="translate(697.000000, 2613.000000)" fill-rule="nonzero" stroke="#0BA8E7" stroke-width="3">
            <path d="M455.457706,497.615398 C434.252512,517.567894 398.139764,512.292333 381.23138,491.16582 C361.219604,466.214453 357.22388,418.924152 392.087026,376.621667 C409.37959,355.639105 430.219904,339.730181 454.586689,328.894934 L465.824726,347.211673 C431.162138,364.209831 405.25441,387.25661 401.583067,425.896293 C417.222437,425.896293 430.198055,425.322998 441.755334,429.508055 C454.913392,434.272801 462.905716,443.109393 466.185877,453.242418 C471.389256,469.107968 468.866872,484.998403 455.457706,497.615398 Z M581.136854,497.615398 C559.93166,517.567894 523.818912,512.292333 506.910528,491.16582 C486.898752,466.214453 482.90299,418.924152 517.766174,376.621667 C535.058738,355.639105 555.899013,339.730181 580.265837,328.894934 L591.503874,347.211673 C556.841286,364.209831 530.933558,387.25661 527.262214,425.896293 C542.901585,425.896293 555.877203,425.322998 567.434482,429.508055 C580.59254,434.272801 588.584864,443.109393 591.865024,453.242418 C597.068365,469.107968 594.545982,484.998403 581.136854,497.615398 Z" id="Shape" transform="translate(480.191835, 419.500299) scale(-1, -1) translate(-480.191835, -419.500299) "></path>
        </g>
    </g>
</svg>