<?xml version="1.0" encoding="UTF-8"?>
<svg width="219px" height="167px" viewBox="0 0 219 167" version="1.1" xmlns="http://www.w3.org/2000/svg" xmlns:xlink="http://www.w3.org/1999/xlink">
    <!-- Generator: Sketch 48.1 (47250) - http://www.bohemiancoding.com/sketch -->
    <title>text-64px-glyph_quote copy</title>
    <desc>Created with Sketch.</desc>
    <defs></defs>
    <g id="All-Elements" stroke="none" stroke-width="1" fill="none" fill-rule="evenodd" transform="translate(-697.000000, -2613.000000)" opacity="0.0699162138">
        <g id="text-64px-glyph_quote-copy" transform="translate(697.000000, 2613.000000)" fill-rule="nonzero" stroke="#0BA8E7" stroke-width="3">
            <g transform="translate(-21.000000, -24.287626)" id="Shape">
                <path d="M93.2990926,175.965457 C71.18333,196.774729 33.5198718,191.272631 15.8854279,169.238929 C-4.98566962,143.21613 -9.15297365,93.8951457 27.2072244,49.7761581 C45.2423447,27.8925871 66.9775582,11.300521 92.3906732,0 L104.11128,19.1032751 C67.9602533,36.8313471 40.9400263,60.8677732 37.1110324,101.166676 C53.4219701,101.166676 66.9547713,100.568764 79.0083292,104.93353 C92.7314049,109.902878 101.066926,119.11892 104.487939,129.687066 C109.914756,146.233896 107.284059,162.806678 93.2990926,175.965457 Z M224.375004,175.965457 C202.259242,196.774729 164.595784,191.272631 146.96134,169.238929 C126.090242,143.21613 121.922898,93.8951457 158.283136,49.7761581 C176.318257,27.8925871 198.05343,11.300521 223.466585,0 L235.187192,19.1032751 C199.036165,36.8313471 172.015938,60.8677732 168.186944,101.166676 C184.497882,101.166676 198.030683,100.568764 210.084241,104.93353 C223.807317,109.902878 232.142838,119.11892 235.563851,129.687066 C240.990628,146.233896 238.359931,162.806678 224.375004,175.965457 Z"></path>
            </g>
        </g>
    </g>
</svg>